<?xml version="1.0" standalone="no"?>
<!DOCTYPE svg PUBLIC "-//W3C//DTD SVG 20010904//EN"
 "http://www.w3.org/TR/2001/REC-SVG-20010904/DTD/svg10.dtd">
<svg version="1.0" xmlns="http://www.w3.org/2000/svg"
 width="3075.000000pt" height="2124.000000pt" viewBox="0 0 3075.000000 2124.000000"
 preserveAspectRatio="xMidYMid meet">

<g transform="translate(0.000000,2124.000000) scale(0.100000,-0.100000)"
fill="#000000" stroke="none">
<path d="M4894 21132 c-21 -4 -54 -30 -54 -43 0 -4 8 -8 18 -8 9 -1 55 -5 102
-10 95 -11 203 -7 208 7 1 5 -7 21 -19 36 -21 27 -22 27 -128 24 -59 -2 -116
-5 -127 -6z"/>
<path d="M11539 21082 c-14 -9 -37 -25 -51 -35 -20 -14 -45 -18 -115 -18 -49
0 -97 3 -108 6 -20 6 -20 6 0 -6 11 -7 52 -13 92 -13 39 -1 69 -4 67 -7 -2 -4
3 -9 11 -13 8 -3 12 -12 9 -20 -3 -8 -1 -17 5 -20 6 -4 8 -13 5 -20 -5 -13 22
-26 56 -26 11 0 11 3 2 12 -7 7 -12 17 -12 23 1 5 10 -1 20 -14 12 -13 26 -21
35 -17 17 6 21 26 5 26 -5 0 -10 9 -10 20 0 11 4 20 10 20 12 0 24 -45 16 -59
-4 -5 -2 -12 4 -16 6 -4 8 -11 5 -16 -4 -5 -1 -9 4 -9 6 0 11 7 11 15 0 9 7
18 15 21 8 4 12 10 9 15 -3 5 1 9 9 9 16 0 19 -32 3 -42 -7 -5 -5 -8 5 -8 9 0
20 10 24 23 l8 22 4 -22 c2 -13 8 -23 13 -23 5 0 12 -9 15 -21 6 -19 8 -19 19
-3 12 16 13 16 20 -2 4 -11 3 -20 -3 -22 -17 -6 -13 -62 4 -62 9 0 12 6 9 15
-5 11 -2 13 10 9 20 -8 20 -18 0 -35 -12 -10 -14 -23 -9 -53 3 -22 11 -44 18
-48 9 -6 9 -10 -2 -17 -8 -5 -9 -11 -3 -15 17 -10 41 4 44 27 4 26 38 35 50
13 12 -21 68 -22 68 -1 0 8 10 20 22 26 19 10 25 8 45 -15 19 -22 24 -24 29
-12 9 24 37 20 29 -3 -3 -11 -1 -22 5 -26 6 -3 8 -11 4 -16 -9 -15 25 -61 40
-56 8 3 19 -5 26 -18 14 -27 80 -41 80 -17 0 7 4 11 9 8 5 -4 11 -1 13 6 6 16
54 2 62 -19 4 -9 1 -21 -6 -26 -9 -6 -8 -7 4 -3 27 8 32 -13 6 -23 -26 -11
-25 -12 15 -15 15 -1 27 3 27 10 0 6 9 14 20 17 13 3 21 -1 26 -15 6 -19 6
-19 21 2 13 19 14 24 2 32 -12 8 -11 9 1 5 8 -2 15 -16 16 -31 1 -31 8 -41 24
-31 7 4 9 18 6 31 -5 19 -2 24 14 24 11 0 20 7 20 15 0 8 3 14 8 13 11 -2 45
13 63 29 14 11 19 12 30 1 8 -7 23 -13 34 -13 15 0 19 -6 18 -22 -2 -13 1 -22
5 -22 21 4 30 -3 34 -26 3 -14 2 -28 -3 -30 -16 -11 -5 -45 15 -45 19 0 19 1
1 13 -12 10 -14 16 -7 21 16 9 32 -1 32 -21 0 -11 6 -14 25 -9 14 4 25 2 25
-3 0 -5 -8 -11 -17 -14 -10 -2 3 -7 30 -11 26 -5 47 -13 47 -20 0 -6 4 -5 9 3
8 12 22 16 93 23 12 2 14 6 6 15 -15 18 12 26 44 14 17 -6 29 -6 35 0 6 6 46
11 89 12 64 2 79 -1 79 -13 0 -8 5 -24 12 -35 10 -17 14 -18 38 -7 21 10 25
10 20 0 -4 -7 1 -4 10 7 14 18 14 20 -2 27 -20 7 -18 9 13 13 15 1 21 -3 19
-14 -3 -22 18 -40 54 -47 26 -6 30 -10 25 -30 -7 -28 10 -32 25 -6 10 16 12
16 25 -1 11 -14 19 -16 33 -8 10 5 26 12 37 15 11 4 16 12 12 21 -7 18 3 45
16 45 6 0 8 -7 4 -15 -3 -9 0 -15 10 -15 8 0 14 6 13 13 -4 30 2 39 21 34 11
-3 22 -1 25 3 6 10 45 1 45 -11 0 -4 -5 -11 -11 -15 -18 -11 32 -34 60 -27 17
4 28 0 37 -12 14 -19 51 -23 94 -10 14 4 20 3 13 -2 -14 -10 -12 -45 2 -55 6
-4 18 -5 28 -2 9 3 17 0 17 -6 0 -6 8 -10 18 -8 13 2 18 -5 20 -33 3 -39 43
-72 79 -65 14 3 20 -1 19 -12 0 -9 4 -17 11 -17 20 0 26 -14 13 -30 -7 -9 -8
-15 -2 -15 5 0 8 -9 5 -20 -4 -15 0 -20 15 -20 11 0 25 7 32 15 18 21 40 19
40 -5 0 -11 6 -20 14 -20 7 0 20 -10 28 -22 12 -18 18 -20 30 -11 16 14 59 6
71 -13 4 -7 15 -11 25 -8 14 5 14 4 2 -5 -21 -14 -3 -28 20 -13 14 9 20 9 23
-1 3 -7 6 -4 6 6 1 9 5 17 10 17 13 0 21 -53 10 -67 -15 -17 7 -26 31 -13 11
6 20 17 20 24 0 7 16 21 35 32 19 10 35 24 35 30 0 14 28 26 41 18 6 -3 5 -11
-2 -20 -15 -18 2 -18 27 1 26 20 34 19 34 -5 0 -11 7 -23 15 -26 14 -6 13 -8
-2 -20 -10 -7 -16 -14 -13 -14 3 -1 12 -3 20 -5 41 -11 55 -9 54 6 -1 11 5 15
17 12 11 -3 22 -9 25 -14 8 -14 24 -10 24 6 0 9 9 15 25 15 14 0 25 4 25 9 0
5 11 11 25 13 14 3 25 1 25 -3 0 -17 20 -9 20 9 1 15 3 14 19 -5 18 -22 19
-22 40 -4 11 10 21 26 21 35 0 18 25 22 35 5 4 -6 13 -8 21 -5 8 3 14 -1 14
-10 0 -10 6 -14 14 -11 9 4 17 -1 19 -11 4 -15 5 -15 6 1 1 15 8 18 39 16 20
-1 53 6 72 14 19 9 29 16 23 17 -7 0 -13 6 -13 14 0 21 23 25 37 7 14 -19 26
-10 17 13 -3 9 -13 16 -22 16 -13 0 -12 3 4 15 21 16 60 20 68 6 3 -5 -3 -11
-14 -14 -23 -6 -27 -27 -6 -27 19 0 46 27 46 46 0 8 6 14 14 14 18 0 30 -17
17 -25 -5 -3 -9 -14 -8 -25 1 -10 4 -17 8 -14 14 8 21 -49 7 -58 -10 -6 -10
-10 2 -18 10 -6 16 -6 18 0 2 6 10 10 18 10 8 0 14 11 15 28 0 26 1 26 9 4 7
-15 6 -29 -3 -42 -9 -16 -9 -24 2 -42 10 -16 10 -23 2 -26 -16 -5 -14 -22 4
-22 9 0 15 9 15 23 0 23 16 47 32 47 4 0 5 -7 2 -15 -4 -10 0 -15 14 -15 14 0
22 -8 24 -22 2 -15 11 -24 25 -26 19 -3 23 1 21 22 -1 14 -8 28 -15 30 -16 7
-12 66 5 66 7 0 11 4 8 9 -3 5 1 14 9 21 9 7 13 21 10 31 -4 11 -2 19 4 19 6
0 11 -6 11 -12 0 -15 48 -17 69 -4 11 7 13 3 9 -17 -3 -15 -2 -24 2 -22 4 3
10 -5 13 -16 5 -17 9 -19 26 -10 25 14 31 14 31 1 0 -5 -9 -10 -20 -10 -28 0
-25 -17 5 -24 14 -4 25 -11 25 -17 0 -6 -5 -7 -11 -3 -7 4 -10 1 -7 -6 8 -24
28 -23 28 0 0 19 3 20 15 10 8 -6 13 -17 12 -22 -3 -18 23 -21 29 -4 7 18 -14
49 -27 40 -5 -3 -9 1 -9 9 0 21 37 10 73 -20 16 -12 34 -23 41 -23 7 0 22 -9
35 -21 15 -14 30 -19 46 -15 19 5 23 3 18 -9 -4 -13 0 -15 23 -9 16 3 34 13
41 21 7 9 13 11 18 4 9 -16 45 -13 51 3 7 18 34 9 34 -10 0 -8 5 -14 10 -14 6
0 10 5 10 10 0 6 7 10 15 10 8 0 15 -5 15 -11 0 -5 10 -3 22 5 32 22 58 20 58
-4 0 -11 5 -20 10 -20 6 0 10 5 10 10 0 21 135 -12 143 -34 3 -8 30 -21 59
-31 29 -9 62 -20 73 -24 11 -5 33 -14 48 -20 15 -6 36 -11 46 -11 10 0 24 -7
31 -15 7 -8 28 -17 49 -20 49 -8 163 -44 181 -59 8 -7 33 -18 55 -25 42 -15
77 -30 134 -60 41 -21 78 -16 110 15 13 13 27 24 31 24 8 0 36 90 33 102 -2 3
13 20 32 36 18 17 31 32 29 35 -3 3 11 18 31 34 86 66 126 107 122 125 -4 15
-2 16 15 7 15 -8 24 -7 36 4 21 18 55 30 47 17 -4 -6 23 -9 67 -8 40 1 85 -1
101 -4 20 -5 27 -3 27 8 0 17 -16 19 -23 2 -3 -7 -6 -3 -6 10 -1 26 15 28 54
8 15 -8 34 -12 42 -9 8 3 24 7 36 8 41 4 42 6 12 20 -29 13 -29 13 -5 14 14 0
42 -3 63 -8 21 -5 39 -5 43 0 3 5 17 9 32 8 15 0 21 -3 15 -6 -7 -2 -13 -9
-13 -14 0 -11 28 -1 62 23 16 11 33 16 39 12 8 -5 6 -10 -5 -16 -22 -12 -20
-28 4 -28 11 0 20 4 20 8 0 5 18 17 40 27 30 14 63 18 130 17 68 -1 93 2 105
14 9 10 15 11 15 4 0 -7 7 -9 16 -6 9 4 23 1 31 -6 8 -7 35 -12 59 -13 35 0
43 3 39 16 -3 10 4 20 20 27 34 16 40 15 25 -3 -10 -13 -9 -15 9 -16 66 -4 79
-1 58 15 -16 12 -14 14 25 18 50 6 78 -12 78 -49 0 -23 1 -23 16 -8 12 12 19
13 24 5 5 -9 11 -8 21 3 10 10 21 12 36 6 18 -7 23 -5 23 7 0 13 6 14 33 8 17
-5 46 -9 64 -9 17 0 29 -3 27 -6 -2 -4 3 -10 12 -13 12 -4 14 -1 9 14 -4 11
-2 20 4 20 5 0 13 -9 16 -20 6 -19 45 -29 45 -12 0 4 16 6 35 4 19 -2 41 0 48
6 6 5 20 8 30 7 9 -2 17 0 17 4 0 4 18 8 39 9 32 1 41 -2 46 -18 8 -24 18 -25
35 -5 17 21 54 20 46 -1 -4 -12 -2 -15 9 -11 8 4 17 2 20 -3 4 -6 13 -5 25 2
14 9 22 9 32 0 28 -23 82 -24 108 -2 21 18 25 19 40 5 9 -9 24 -13 33 -10 9 4
17 0 19 -10 3 -14 6 -14 25 4 l22 21 38 -21 c21 -11 44 -28 51 -37 7 -9 27
-18 45 -20 17 -2 37 -8 44 -13 6 -6 31 -12 55 -15 24 -2 59 -7 78 -10 170 -27
325 -16 401 29 24 14 64 29 89 33 25 4 61 15 80 24 19 9 47 20 62 24 14 3 48
23 75 43 39 31 106 70 133 78 3 1 12 4 20 8 8 3 28 8 44 12 15 3 40 14 55 25
14 10 62 26 106 35 83 17 168 54 207 90 21 20 106 65 121 65 12 0 138 103 169
137 3 5 40 43 82 87 71 74 105 133 91 156 -3 5 -1 10 5 10 6 0 8 10 4 25 -4
16 -2 25 6 25 6 0 8 -4 5 -10 -3 -5 7 -15 22 -21 15 -6 38 -16 50 -22 13 -6
26 -7 30 -3 10 9 -42 56 -62 56 -7 0 -28 14 -45 30 -18 17 -38 29 -44 27 -7
-2 -11 -37 -11 -93 -1 -76 -4 -95 -23 -121 -28 -39 -95 -99 -119 -107 -11 -3
-41 -31 -67 -61 -26 -30 -51 -55 -56 -55 -11 0 -113 -70 -154 -105 -16 -14
-36 -25 -44 -25 -8 0 -31 -9 -51 -19 -20 -11 -62 -27 -95 -37 -50 -15 -67 -16
-114 -6 l-55 12 -71 -48 c-39 -25 -82 -53 -96 -60 -14 -7 -39 -24 -56 -37 -31
-24 -91 -50 -183 -82 -54 -18 -217 -13 -336 11 -44 8 -99 16 -122 16 -30 0
-50 7 -71 25 -17 14 -51 32 -77 39 -25 8 -52 20 -60 26 -17 14 -20 56 -5 65
20 12 10 45 -16 55 -32 12 -166 13 -218 0 -22 -5 -48 -20 -60 -34 -29 -36
-104 -56 -209 -56 -61 0 -97 -5 -119 -16 -29 -15 -38 -15 -112 1 -134 30 -180
42 -211 59 -39 21 -51 20 -86 -5 -27 -19 -44 -21 -187 -22 -104 -1 -174 4
-208 13 -49 12 -54 12 -88 -9 -42 -26 -67 -23 -122 14 -38 26 -91 33 -122 16
-9 -5 -39 -12 -67 -15 -27 -4 -69 -9 -92 -12 -33 -5 -50 -1 -76 15 -19 12 -44
21 -56 21 -12 0 -35 10 -51 21 -24 19 -33 20 -61 10 -42 -15 -132 -14 -147 1
-12 12 -54 3 -110 -24 -40 -20 -72 -89 -72 -158 0 -54 -3 -64 -26 -83 -14 -12
-43 -37 -64 -55 -24 -21 -55 -35 -86 -41 -27 -5 -50 -14 -52 -20 -7 -20 -48
-12 -72 14 -27 29 -42 31 -75 9 -20 -13 -31 -14 -58 -5 -24 8 -46 8 -82 0 -28
-7 -87 -14 -132 -16 l-83 -4 -46 47 c-25 26 -48 60 -51 76 -5 24 -10 28 -42
28 -20 0 -47 7 -61 15 -68 39 -71 40 -81 22 -8 -14 -25 -17 -82 -17 -75 0 -94
7 -147 56 -27 25 -128 64 -164 64 -42 0 -103 44 -223 161 -66 66 -127 119
-135 119 -7 0 -37 16 -67 35 -29 19 -55 35 -58 35 -3 0 -28 16 -55 36 -30 21
-82 44 -131 59 -173 50 -422 105 -476 106 -31 0 -78 4 -106 9 -160 30 -338 42
-568 38 -190 -4 -240 -2 -249 9 -6 7 -15 34 -19 60 -14 75 -27 82 -139 71 -52
-4 -125 -6 -162 -2 l-68 6 0 -30 c0 -28 -4 -31 -41 -37 -36 -6 -45 -3 -79 24
-59 47 -110 61 -236 61 -83 0 -119 -4 -144 -16 -31 -16 -35 -16 -89 6 -89 36
-146 62 -151 69 -3 4 -17 14 -33 24 -36 23 -87 14 -124 -22 -39 -37 -133 -59
-176 -42 -18 7 -48 16 -67 20 -19 4 -50 16 -69 26 -29 14 -48 16 -110 11 -41
-4 -87 -14 -101 -23 -23 -13 -38 -13 -116 -3 -49 7 -126 16 -172 19 -46 4 -87
12 -90 18 -12 18 -50 33 -86 33 -19 0 -38 5 -41 10 -10 15 -67 10 -96 -8z
m-62 -68 c-3 -3 -12 -4 -19 -1 -8 3 -5 6 6 6 11 1 17 -2 13 -5z m13 -24 c0 -5
-7 -10 -15 -10 -8 0 -15 5 -15 10 0 6 7 10 15 10 8 0 15 -4 15 -10z m560 -170
c0 -5 -5 -10 -11 -10 -5 0 -7 5 -4 10 3 6 8 10 11 10 2 0 4 -4 4 -10z m-90
-90 c0 -5 -2 -10 -4 -10 -3 0 -8 5 -11 10 -3 6 -1 10 4 10 6 0 11 -4 11 -10z
m60 -30 c0 -5 -4 -10 -10 -10 -5 0 -10 5 -10 10 0 6 5 10 10 10 6 0 10 -4 10
-10z m577 -92 c-3 -8 -6 -5 -6 6 -1 11 2 17 5 13 3 -3 4 -12 1 -19z m-353 -3
c-4 -8 -11 -15 -16 -15 -6 0 -5 6 2 15 7 8 14 15 16 15 2 0 1 -7 -2 -15z m-34
-24 c0 -12 -20 -25 -27 -18 -7 7 6 27 18 27 5 0 9 -4 9 -9z m122 -63 c-7 -7
-12 -8 -12 -2 0 14 12 26 19 19 2 -3 -1 -11 -7 -17z m618 -53 c0 -20 -5 -25
-25 -25 -28 0 -29 3 -15 31 15 28 40 24 40 -6z m5600 -370 c0 -28 -4 -35 -20
-35 -11 0 -20 5 -20 10 0 6 7 10 16 10 11 0 14 5 10 16 -6 15 0 34 10 34 2 0
4 -16 4 -35z m690 5 c0 -5 -4 -10 -10 -10 -5 0 -10 5 -10 10 0 6 5 10 10 10 6
0 10 -4 10 -10z m-3730 -66 c0 -8 -5 -12 -10 -9 -6 4 -8 11 -5 16 9 14 15 11
15 -7z"/>
<path d="M5469 21080 c-14 -4 -46 -19 -70 -33 -75 -44 -107 -44 -167 -3 -56
39 -73 33 -19 -7 60 -45 71 -48 148 -37 42 6 75 7 78 2 3 -5 22 -8 41 -7 34 2
69 -9 81 -27 8 -13 108 -38 125 -31 24 9 61 -6 67 -27 4 -15 13 -20 41 -20 23
0 36 -5 36 -13 0 -8 11 -12 29 -11 22 1 28 -2 24 -12 -4 -10 4 -14 30 -14 26
0 41 -7 52 -22 10 -13 19 -18 21 -12 3 7 21 8 50 4 34 -5 47 -4 51 6 3 8 15
-5 29 -32 20 -37 22 -48 12 -64 -15 -24 -4 -37 17 -20 12 10 24 11 54 1 53
-15 71 -14 87 7 13 16 15 16 25 -1 8 -14 14 -16 25 -6 11 9 18 8 32 -5 10 -9
26 -16 34 -16 9 0 18 -9 21 -20 7 -29 24 -25 63 14 33 33 45 66 24 66 -5 0
-10 9 -10 21 0 14 5 19 14 16 8 -3 16 -1 18 5 8 22 28 -3 28 -33 0 -22 4 -29
17 -27 23 4 51 -48 56 -104 4 -49 31 -103 47 -93 5 3 3 26 -5 53 -8 26 -15 57
-15 70 0 12 -4 22 -9 22 -5 0 -4 11 2 25 13 26 50 34 63 14 5 -8 10 -6 16 5
12 22 37 20 59 -5 11 -13 25 -19 34 -15 10 3 13 2 10 -5 -7 -11 39 -59 56 -59
6 0 19 5 30 10 14 8 19 7 19 -2 0 -10 2 -10 9 1 12 18 33 4 27 -17 -7 -22 9
-47 24 -37 6 4 17 -1 25 -11 13 -18 14 -17 20 8 4 16 5 35 2 43 -4 8 -2 17 2
20 5 2 12 -7 15 -21 6 -23 11 -26 36 -21 23 5 30 2 36 -15 l6 -21 18 23 c13
17 19 20 23 9 3 -8 6 -2 6 13 1 33 12 41 46 32 20 -5 23 -9 14 -20 -8 -10 -8
-14 0 -14 6 0 11 -11 11 -25 0 -14 -5 -25 -11 -25 -8 0 -8 -5 1 -15 9 -11 16
-12 26 -4 7 6 19 9 26 7 7 -3 21 4 30 15 17 19 18 19 45 2 18 -12 28 -14 31
-7 7 23 32 12 32 -13 0 -33 18 -32 32 3 11 26 12 26 15 4 4 -21 43 -52 43 -34
0 5 25 9 56 9 42 0 54 -3 50 -13 -3 -9 2 -14 13 -14 15 0 18 -5 14 -22 -4 -18
-2 -20 5 -9 9 12 13 12 26 2 9 -8 16 -21 16 -31 0 -16 14 -24 56 -35 20 -5 54
-44 75 -85 16 -30 27 -40 45 -40 13 0 24 6 24 13 0 22 44 41 67 29 10 -6 25
-7 32 -3 7 4 23 6 37 3 14 -2 24 0 24 7 0 6 7 11 15 11 8 0 15 -6 15 -14 0 -8
7 -16 15 -20 8 -3 15 -12 15 -20 0 -14 34 -28 44 -18 3 3 1 11 -5 19 -9 10 -8
13 5 13 9 0 16 -8 16 -20 0 -16 4 -19 18 -12 9 5 23 7 30 5 6 -3 12 0 12 6 0
16 14 13 37 -8 50 -47 126 -71 288 -91 39 -5 89 -13 112 -18 23 -5 43 -6 45
-1 2 4 39 1 83 -7 44 -7 93 -11 109 -8 19 4 26 3 22 -5 -5 -7 -1 -9 8 -5 9 3
16 2 16 -3 0 -5 42 -9 93 -10 50 0 127 -2 170 -4 53 -3 82 0 89 8 5 6 21 11
36 11 15 -1 37 2 50 6 18 6 22 4 22 -14 0 -12 4 -18 10 -15 7 5 73 10 175 15
6 0 45 -1 88 -2 60 -3 81 0 87 11 5 9 14 11 26 7 11 -4 58 -9 105 -12 68 -3
89 -1 99 11 7 8 21 15 31 15 10 0 21 5 24 11 4 5 12 8 18 6 7 -2 20 0 29 4 9
5 41 12 70 15 29 3 79 14 110 25 32 10 66 19 77 19 18 0 33 5 96 31 38 15 116
39 129 39 19 0 106 50 106 61 0 5 7 9 15 9 50 0 212 143 248 220 4 8 19 35 33
60 48 81 72 136 87 194 24 89 -2 63 -33 -34 -74 -229 -209 -372 -405 -431 -22
-6 -57 -20 -77 -30 -21 -11 -51 -19 -67 -19 -16 0 -33 -4 -36 -10 -3 -5 -16
-10 -29 -10 -12 0 -26 -4 -31 -8 -20 -17 -96 -35 -147 -35 -29 1 -142 6 -251
12 l-198 11 -70 37 c-59 31 -82 37 -147 40 -45 3 -107 14 -149 28 -40 14 -91
27 -115 31 -24 3 -81 23 -128 44 -166 73 -266 100 -374 100 -59 0 -93 7 -170
34 -53 19 -118 38 -144 42 -26 3 -78 20 -117 36 -83 35 -166 57 -253 68 -35 4
-69 13 -75 19 -6 6 -27 11 -47 11 -20 0 -80 7 -134 15 -53 8 -103 12 -110 9
-12 -5 -36 -1 -191 26 -33 5 -168 10 -300 11 -237 1 -325 11 -362 41 -7 5 -26
7 -43 3 -17 -4 -36 -2 -44 4 -8 7 -31 7 -66 2 -30 -5 -67 -5 -84 0 -17 5 -60
9 -96 9 -36 0 -76 0 -90 0 -14 0 -50 5 -80 10 -30 5 -129 12 -220 15 -91 2
-221 9 -290 14 -69 6 -140 8 -158 4 -74 -13 -119 4 -191 73 -38 35 -70 64 -72
63 -2 0 -16 -4 -30 -9z m1018 -360 c-13 -22 -23 -25 -32 -11 -7 12 24 43 36
36 5 -3 3 -15 -4 -25z m387 -22 c-3 -5 -12 -4 -20 3 -19 16 -18 18 6 12 11 -3
17 -9 14 -15z m593 -86 c1 -10 -5 -19 -12 -19 -7 0 -16 9 -18 19 -4 12 0 18
12 18 9 0 17 -8 18 -18z m-157 -31 c0 -11 -31 -24 -39 -16 -3 3 1 10 9 15 19
12 30 12 30 1z"/>
<path d="M11172 21058 c-20 -20 -14 -24 28 -20 33 3 39 7 29 18 -14 17 -41 18
-57 2z"/>
<path d="M4766 21015 c-18 -27 -21 -49 -6 -40 15 9 42 65 31 65 -5 0 -16 -11
-25 -25z"/>
<path d="M11124 20968 c-15 -31 -19 -47 -10 -38 16 15 50 90 41 90 -2 0 -16
-24 -31 -52z"/>
<path d="M5458 20973 c7 -3 16 -2 19 1 4 3 -2 6 -13 5 -11 0 -14 -3 -6 -6z"/>
<path d="M4724 20943 c-8 -10 -49 -53 -90 -96 -42 -44 -73 -82 -69 -85 3 -3
20 9 38 28 18 19 49 49 70 66 20 17 46 47 56 67 21 41 19 46 -5 20z"/>
<path d="M2720 20898 c-25 -5 -58 -6 -74 -3 -21 4 -38 -2 -63 -20 -38 -30
-116 -46 -183 -38 -35 4 -50 0 -65 -14 -11 -10 -33 -24 -49 -31 -44 -19 -25
-24 25 -6 47 16 68 20 164 30 33 3 77 15 97 25 21 11 50 19 65 19 15 0 44 4
63 9 19 5 75 12 123 15 l88 6 64 -65 c45 -45 72 -65 89 -65 14 0 37 -11 53
-24 15 -13 47 -32 70 -43 37 -16 51 -18 103 -9 45 7 73 6 112 -4 29 -7 65 -13
79 -12 18 2 41 -11 72 -38 l46 -41 111 5 c86 4 120 2 147 -9 58 -25 226 -7
398 42 84 24 147 40 215 54 64 12 90 27 90 48 0 8 -6 8 -17 2 -10 -5 -49 -17
-86 -26 -38 -8 -79 -22 -91 -30 -12 -8 -55 -19 -96 -25 -41 -6 -87 -17 -103
-25 -35 -17 -291 -22 -343 -7 -18 6 -37 6 -45 1 -8 -5 -49 -9 -91 -9 -68 0
-80 3 -101 24 -50 50 -119 68 -272 71 -108 1 -140 8 -149 30 -7 18 -78 55
-107 55 -13 0 -43 23 -79 59 l-57 60 -79 -1 c-43 -1 -99 -5 -124 -10z"/>
<path d="M6050 20770 c-13 -8 -12 -10 3 -10 9 0 17 5 17 10 0 12 -1 12 -20 0z"/>
<path d="M2159 20743 c-11 -13 -11 -15 -1 -9 8 5 26 12 40 16 l27 8 -26 1
c-15 1 -33 -7 -40 -16z"/>
<path d="M23375 20749 c-27 -5 -80 -13 -117 -20 -44 -7 -81 -20 -105 -38 -21
-14 -48 -31 -61 -36 -12 -6 -66 -53 -120 -106 -106 -106 -222 -209 -235 -209
-4 0 -26 -12 -50 -27 -23 -15 -58 -35 -78 -44 -20 -9 -39 -21 -43 -27 -7 -12
96 29 117 46 8 7 30 18 50 25 51 17 134 87 224 188 32 36 48 47 77 55 15 3 29
10 31 15 3 4 17 3 31 -3 18 -9 27 -9 36 0 7 7 25 12 41 12 15 0 26 4 23 9 -9
13 19 32 38 25 21 -8 21 -24 -1 -25 -13 0 -11 -3 6 -10 17 -7 34 -6 53 2 15 6
37 9 49 6 12 -3 32 -1 46 4 28 10 55 -4 51 -27 -2 -7 0 -12 3 -11 4 1 16 -6
27 -16 18 -16 21 -16 35 -2 9 8 23 15 32 15 12 0 15 5 11 18 -5 14 -3 13 9 -3
13 -16 19 -18 35 -7 14 9 20 9 20 1 0 -7 10 -9 25 -7 14 3 29 0 35 -7 11 -14
79 -10 95 6 15 15 25 11 25 -11 0 -11 5 -20 10 -20 6 0 10 7 10 15 0 8 6 15
14 15 8 0 16 6 19 14 5 12 13 12 53 -3 27 -11 51 -27 55 -38 9 -26 61 -47 91
-38 13 4 34 16 48 25 14 10 33 19 43 21 25 5 23 23 -3 27 -12 2 -39 -8 -60
-23 -49 -34 -67 -29 -142 39 -31 28 -76 67 -99 86 -22 19 -45 45 -50 57 -5 13
-20 28 -34 33 -32 12 -300 11 -370 -1z m120 -179 c-3 -4 -15 -6 -27 -2 -21 5
-21 6 -2 12 21 8 37 3 29 -10z"/>
<path d="M2095 20698 c-2 -7 -6 -40 -7 -73 -3 -54 -6 -61 -30 -73 -15 -7 -38
-26 -52 -43 -21 -25 -26 -40 -25 -87 1 -147 -15 -232 -44 -232 -12 0 -67 -53
-67 -64 0 -4 28 15 62 42 72 56 76 67 78 217 l1 90 49 50 50 50 0 67 c0 64 -5
83 -15 56z"/>
<path d="M6150 20690 c0 -5 7 -7 15 -4 8 4 15 8 15 10 0 2 -7 4 -15 4 -8 0
-15 -4 -15 -10z"/>
<path d="M22027 20674 c9 -15 19 -22 21 -15 2 6 -3 18 -11 26 -24 24 -29 18
-10 -11z"/>
<path d="M12030 20629 c0 -5 5 -7 10 -4 6 3 10 8 10 11 0 2 -4 4 -10 4 -5 0
-10 -5 -10 -11z"/>
<path d="M22060 20634 c0 -17 53 -109 67 -118 8 -4 20 -21 26 -36 20 -45 119
-145 206 -204 65 -45 89 -56 121 -56 51 0 52 17 3 26 -65 11 -137 52 -201 115
-34 33 -62 65 -62 72 0 7 -20 32 -45 57 -24 25 -45 54 -45 65 -1 27 -70 105
-70 79z"/>
<path d="M11846 20584 c-6 -16 2 -18 22 -5 11 7 11 9 -1 14 -9 3 -18 -1 -21
-9z"/>
<path d="M24343 20549 c-6 -6 -35 -10 -65 -10 -30 0 -61 -5 -69 -10 -11 -7 -9
-9 7 -9 12 0 25 -8 28 -17 6 -14 9 -15 15 -4 6 10 16 -1 32 -38 13 -28 29 -51
36 -51 6 0 18 -6 25 -13 7 -7 24 -20 38 -30 23 -16 25 -16 36 6 10 17 14 18
17 7 17 -58 25 -75 35 -72 7 1 18 -9 24 -23 7 -17 14 -21 19 -14 4 8 11 4 19
-12 7 -13 22 -32 34 -42 27 -22 100 -57 120 -57 9 0 24 -8 35 -19 28 -28 84
-53 91 -41 4 6 17 1 34 -15 15 -14 31 -25 37 -25 5 0 9 -4 9 -10 0 -5 7 -10
15 -10 19 0 19 0 -1 39 -24 48 -55 64 -105 56 -36 -6 -45 -4 -58 14 -10 13
-35 24 -64 30 -38 7 -59 19 -93 52 -24 24 -44 51 -44 62 0 10 -20 47 -45 83
-25 35 -45 66 -45 70 0 8 -93 114 -100 114 -3 0 -11 -5 -17 -11z m-28 -79 c3
-5 1 -10 -4 -10 -6 0 -11 5 -11 10 0 6 2 10 4 10 3 0 8 -4 11 -10z m62 -56
c-3 -3 -12 -4 -19 -1 -8 3 -5 6 6 6 11 1 17 -2 13 -5z m20 -36 c-3 -8 -6 -5
-6 6 -1 11 2 17 5 13 3 -3 4 -12 1 -19z"/>
<path d="M7187 20495 c-4 -8 -2 -17 3 -20 6 -4 10 -4 10 -1 0 2 3 11 6 20 3 9
2 16 -4 16 -5 0 -12 -7 -15 -15z"/>
<path d="M12245 20480 c-3 -5 -2 -10 4 -10 5 0 13 5 16 10 3 6 2 10 -4 10 -5
0 -13 -4 -16 -10z"/>
<path d="M13620 20360 c0 -5 5 -10 10 -10 6 0 10 5 10 10 0 6 -4 10 -10 10 -5
0 -10 -4 -10 -10z"/>
<path d="M13520 20330 c0 -5 5 -10 11 -10 5 0 7 5 4 10 -3 6 -8 10 -11 10 -2
0 -4 -4 -4 -10z"/>
<path d="M8050 20300 c0 -5 5 -10 10 -10 6 0 10 5 10 10 0 6 -4 10 -10 10 -5
0 -10 -4 -10 -10z"/>
<path d="M13950 20160 c0 -5 5 -10 10 -10 6 0 10 5 10 10 0 6 -4 10 -10 10 -5
0 -10 -4 -10 -10z"/>
<path d="M13867 20134 c-8 -8 1 -24 14 -24 5 0 9 7 9 15 0 15 -12 20 -23 9z"/>
<path d="M1825 20110 c-28 -11 -47 -36 -43 -55 2 -12 13 -5 39 24 37 42 38 45
4 31z"/>
<path d="M13830 20055 c12 -15 30 -12 30 6 0 5 -10 9 -21 9 -18 0 -19 -2 -9
-15z"/>
<path d="M29205 20052 c-15 -14 -114 -41 -174 -48 -44 -6 -63 -14 -95 -44 -58
-53 -206 -104 -296 -101 -81 2 -166 -15 -174 -35 -3 -8 -27 -24 -52 -36 -52
-22 -108 -20 -186 8 -53 19 -118 12 -167 -18 -34 -20 -49 -21 -231 -22 -174 0
-199 2 -230 19 -46 25 -124 27 -174 3 -22 -10 -63 -18 -90 -18 -28 0 -82 -10
-121 -21 -38 -11 -97 -24 -130 -29 -33 -5 -89 -16 -125 -25 -36 -9 -118 -27
-182 -40 l-118 -22 -54 -56 c-30 -30 -65 -58 -78 -62 -13 -4 -39 -19 -58 -34
-19 -14 -45 -31 -57 -38 -44 -23 -153 -108 -143 -111 5 -2 36 9 67 24 32 15
62 26 66 25 4 0 10 6 13 14 4 8 18 15 33 15 15 0 36 7 47 15 10 8 29 15 42 15
12 0 22 5 22 11 0 5 3 8 8 6 4 -3 18 0 32 6 70 29 97 39 118 42 13 2 28 8 35
13 32 26 87 50 130 56 26 4 47 11 47 17 0 5 8 9 19 9 10 0 24 7 31 16 10 11
23 14 51 9 22 -4 40 -2 44 4 3 6 25 11 48 11 23 0 49 4 57 10 9 6 19 5 28 -2
10 -9 15 -9 21 0 8 13 131 15 131 2 0 -4 24 -5 53 -2 28 2 61 5 72 5 11 1 22
4 25 8 3 3 16 2 30 -4 35 -14 66 -13 84 2 14 11 22 12 44 1 15 -7 51 -14 79
-16 48 -3 52 -1 50 18 -1 11 4 23 11 25 7 3 12 -3 12 -14 0 -11 3 -22 6 -26 6
-5 53 11 64 23 3 3 14 7 25 8 10 2 25 11 31 20 10 14 17 15 46 4 19 -6 47 -12
62 -12 14 0 29 -6 32 -14 4 -11 33 -13 142 -10 168 4 197 7 246 28 21 10 44
15 51 12 8 -3 19 2 25 10 7 8 21 14 31 14 10 0 33 13 51 29 18 15 39 26 46 24
6 -3 12 0 12 6 0 17 61 44 73 32 7 -7 17 -2 34 17 16 18 26 23 31 15 9 -14 35
3 45 31 4 11 13 16 22 12 10 -3 15 1 15 11 0 9 3 14 6 10 3 -3 17 -2 30 3 13
5 24 6 24 2 0 -4 13 -8 29 -9 24 -2 32 3 42 26 12 26 17 28 47 24 19 -3 37 -2
41 4 3 5 26 15 50 22 39 11 45 11 53 -3 14 -24 31 -19 24 7 -4 16 1 26 17 36
20 13 21 13 8 -2 -7 -10 -9 -17 -4 -17 28 0 83 -81 83 -122 0 -10 7 -18 15
-18 18 0 19 -12 3 -28 -9 -9 -8 -12 4 -12 9 0 18 6 21 13 7 19 -3 68 -19 92
-8 11 -14 29 -14 40 0 29 -25 61 -62 79 -34 17 -88 21 -103 8z"/>
<path d="M19288 20043 c6 -2 18 -2 25 0 6 3 1 5 -13 5 -14 0 -19 -2 -12 -5z"/>
<path d="M1745 20031 c-36 -35 -259 -146 -310 -155 -22 -4 -59 -12 -82 -18
-41 -12 -43 -14 -64 -81 -22 -71 -21 -107 2 -40 13 41 23 54 56 71 14 8 23 8
25 2 2 -7 24 -4 58 6 78 23 211 85 204 95 -3 5 2 9 11 9 22 0 59 36 50 50 -4
7 -1 10 9 8 19 -4 77 33 73 46 -5 14 -21 18 -32 7z"/>
<path d="M18210 20030 c0 -5 5 -10 11 -10 5 0 7 5 4 10 -3 6 -8 10 -11 10 -2
0 -4 -4 -4 -10z"/>
<path d="M13853 20017 c5 -17 57 -31 70 -18 15 15 8 19 -37 25 -25 3 -36 1
-33 -7z"/>
<path d="M24940 20001 c0 -5 5 -13 10 -16 6 -3 10 -2 10 4 0 5 -4 13 -10 16
-5 3 -10 2 -10 -4z"/>
<path d="M29060 19930 c0 -5 5 -10 11 -10 5 0 7 5 4 10 -3 6 -8 10 -11 10 -2
0 -4 -4 -4 -10z"/>
<path d="M25054 19875 c11 -8 27 -15 35 -15 13 1 12 4 -3 15 -11 8 -27 15 -35
15 -13 -1 -12 -4 3 -15z"/>
<path d="M29406 19809 c-4 -9 -6 -20 -5 -25 4 -23 -2 -44 -18 -60 -10 -9 -18
-27 -18 -39 -1 -12 -9 -38 -18 -58 -10 -20 -19 -58 -22 -86 -5 -60 3 -70 79
-106 29 -14 61 -34 71 -45 10 -11 26 -20 37 -20 10 0 26 -9 35 -20 10 -11 23
-20 30 -20 24 0 13 19 -19 36 -18 9 -45 26 -60 38 -62 49 -74 57 -98 62 -14 3
-31 7 -37 10 -25 7 -13 71 27 150 40 79 47 120 30 174 -6 20 -9 22 -14 9z"/>
<path d="M25175 19800 c-3 -5 4 -14 15 -20 16 -8 20 -8 20 4 0 16 -27 29 -35
16z"/>
<path d="M25230 19751 c0 -5 18 -29 40 -52 22 -24 40 -49 40 -56 0 -16 45 -64
53 -56 4 3 7 -12 7 -35 0 -23 4 -42 9 -42 11 0 8 121 -4 141 -28 45 -145 125
-145 100z"/>
<path d="M28600 19705 c0 -17 2 -18 24 -9 23 9 20 24 -4 24 -11 0 -20 -7 -20
-15z"/>
<path d="M1240 19551 c0 -12 20 -71 36 -108 8 -17 14 -44 14 -61 0 -16 6 -47
14 -69 7 -21 17 -76 20 -122 4 -46 15 -104 25 -130 10 -25 22 -82 26 -126 4
-44 15 -119 24 -166 15 -70 15 -89 5 -105 -7 -10 -18 -52 -24 -93 l-12 -73 34
-37 c19 -20 40 -55 47 -78 10 -38 59 -93 81 -93 13 0 17 -41 7 -80 -4 -19 -10
-144 -12 -277 -5 -238 -5 -243 -32 -300 -21 -45 -28 -77 -31 -143 -2 -47 -7
-89 -12 -95 -4 -5 -10 -23 -14 -40 -7 -29 -13 -44 -50 -128 -10 -21 -16 -45
-14 -55 2 -9 22 21 45 70 24 48 47 89 53 93 5 3 10 18 10 33 0 15 14 54 31 87
22 43 29 69 25 92 -3 19 0 36 8 42 15 13 33 92 42 186 6 72 7 88 5 140 -1 17
1 56 4 87 4 43 1 64 -10 81 -16 25 -20 93 -10 164 4 28 1 52 -8 70 -8 15 -21
54 -28 85 -7 31 -17 55 -21 52 -4 -2 -4 11 -1 31 3 21 -1 57 -12 91 -9 30 -15
63 -13 72 4 15 0 18 -26 15 -28 -3 -29 -2 -8 7 26 11 26 13 8 53 -12 27 -21
60 -40 137 -2 8 -9 44 -16 80 -6 36 -18 82 -26 103 -8 21 -18 64 -23 95 -17
115 -53 288 -71 337 -10 28 -20 58 -24 68 -5 17 -26 24 -26 8z"/>
<path d="M25470 19426 c0 -2 7 -7 16 -10 8 -3 12 -2 9 4 -6 10 -25 14 -25 6z"/>
<path d="M25555 19370 c10 -11 22 -17 26 -14 5 3 9 1 9 -4 0 -6 7 -12 15 -16
11 -4 8 4 -7 24 -12 17 -31 30 -41 30 -19 0 -19 -1 -2 -20z"/>
<path d="M25656 19313 c-3 -4 15 -17 41 -29 26 -13 49 -21 52 -19 2 3 2 6 0 8
-43 25 -88 45 -93 40z"/>
<path d="M26071 19283 c-21 -9 -71 -15 -125 -15 -49 0 -105 -6 -125 -13 -34
-13 -30 -14 69 -14 103 -1 228 13 242 27 4 4 0 12 -10 18 -12 8 -26 7 -51 -3z"/>
<path d="M970 16147 c0 -7 11 -28 24 -46 19 -25 23 -39 16 -55 -8 -23 9 -147
28 -196 11 -30 6 -46 -23 -82 -22 -26 -42 -95 -31 -106 3 -3 16 17 27 44 12
27 31 61 42 76 21 29 18 77 -8 128 -9 17 -12 48 -9 90 5 80 -24 159 -58 160
-5 0 -8 -6 -8 -13z"/>
<path d="M2111 13334 c0 -11 3 -14 6 -6 3 7 2 16 -1 19 -3 4 -6 -2 -5 -13z"/>
<path d="M2110 13240 c0 -30 -26 -102 -71 -195 -10 -22 -19 -57 -19 -78 0 -32
-6 -44 -32 -65 -18 -15 -58 -52 -88 -83 -30 -30 -63 -58 -73 -62 -39 -15 -49
-70 -40 -217 7 -123 6 -141 -9 -166 -10 -16 -18 -43 -18 -60 0 -17 -5 -46 -11
-64 -10 -27 -9 -37 5 -62 17 -28 17 -30 -3 -69 -15 -28 -20 -50 -16 -72 5 -26
1 -37 -19 -56 -14 -13 -28 -36 -31 -52 -10 -43 21 -151 61 -217 37 -62 44
-102 18 -102 -26 0 -120 -68 -132 -95 -7 -14 -12 -36 -12 -48 0 -12 -13 -34
-28 -48 -22 -21 -37 -59 -72 -175 -24 -82 -52 -166 -62 -186 -10 -21 -18 -48
-18 -62 0 -13 -14 -64 -31 -113 -30 -84 -59 -182 -81 -268 -21 -86 -27 -111
-32 -136 -3 -14 -16 -42 -30 -61 -13 -20 -27 -47 -31 -59 -4 -13 -13 -31 -20
-39 -7 -8 -20 -40 -30 -70 -10 -30 -21 -59 -26 -64 -5 -6 -9 -21 -9 -34 0 -13
-13 -40 -30 -59 -16 -18 -30 -44 -30 -56 0 -13 -5 -28 -12 -35 -6 -6 -12 -48
-14 -95 -1 -47 -7 -95 -14 -107 -8 -14 -13 -87 -16 -199 -2 -104 -9 -208 -18
-253 -10 -48 -15 -123 -14 -197 2 -116 1 -120 -26 -160 -38 -54 -48 -101 -53
-254 -5 -125 -4 -130 23 -181 l28 -53 -41 -64 c-22 -35 -44 -75 -48 -89 -4
-14 -16 -39 -26 -56 -11 -17 -19 -44 -19 -58 0 -40 -15 -61 -65 -96 -25 -17
-52 -42 -61 -55 -14 -22 -13 -26 12 -67 32 -51 64 -149 64 -198 0 -31 7 -41
54 -77 37 -30 55 -51 59 -73 5 -24 15 -34 44 -46 21 -8 58 -25 83 -36 25 -12
55 -26 67 -31 12 -5 29 -27 37 -47 8 -21 21 -44 28 -51 21 -23 48 -76 48 -94
0 -9 8 -49 17 -87 l17 -70 -27 -48 -27 -47 23 -62 22 -61 42 0 c23 0 45 5 48
10 4 6 11 7 17 4 8 -5 9 -1 4 12 -10 26 -14 38 -30 112 -8 35 -26 87 -39 115
-14 29 -28 71 -32 95 -4 23 -11 42 -15 42 -5 0 -11 10 -15 23 -9 35 -69 161
-83 176 -7 7 -10 22 -6 35 14 45 33 86 41 86 5 0 10 16 11 37 2 20 6 41 9 46
4 6 0 8 -10 4 -13 -5 -17 -1 -17 16 0 22 31 57 50 57 6 0 10 5 10 10 0 6 9 10
21 10 15 0 19 5 15 15 -3 9 1 18 9 21 23 9 18 26 -7 22 -17 -2 -23 2 -23 17 0
15 7 20 27 20 15 1 30 4 34 8 18 17 34 6 28 -18 -5 -20 -2 -27 17 -33 31 -12
59 -4 59 17 0 13 -2 14 -9 2 -7 -12 -13 -12 -24 -3 -7 7 -18 8 -22 4 -5 -4 -5
-1 -1 6 4 6 13 12 19 12 13 0 37 45 37 67 0 7 -7 13 -16 13 -12 0 -15 -7 -12
-25 4 -17 1 -25 -8 -25 -8 0 -11 6 -8 15 4 11 2 13 -9 10 -9 -4 -16 1 -20 14
-6 24 0 31 25 31 10 0 18 7 18 15 0 8 15 21 34 29 34 14 34 16 24 48 -6 18
-15 41 -19 50 -5 10 -9 27 -9 37 0 11 -5 23 -10 26 -6 4 -8 11 -5 16 9 14 35
11 35 -5 0 -7 7 -19 16 -26 13 -11 19 -10 37 10 12 13 15 19 6 12 -9 -7 -19
-9 -22 -5 -13 13 -7 23 14 23 18 0 20 2 8 16 -11 14 -10 15 6 12 16 -2 20 3
20 32 1 19 -3 40 -7 47 -11 14 10 51 34 58 24 8 30 31 34 125 2 47 4 87 5 90
1 3 2 21 3 41 1 32 -1 35 -16 25 -10 -6 -18 -16 -18 -23 0 -7 -7 -13 -15 -13
-23 0 -18 28 10 52 14 12 25 29 25 39 0 10 4 19 10 21 5 2 18 30 28 64 16 52
17 64 5 79 -7 11 -13 15 -13 9 0 -5 -5 -2 -10 6 -7 11 -4 16 13 20 18 5 22 13
23 48 2 59 2 59 24 65 24 6 18 31 -14 62 l-21 20 22 3 c12 2 27 10 33 18 17
19 40 18 56 -3 12 -16 15 -16 24 -3 7 11 5 18 -5 26 -9 6 -13 18 -9 27 6 17
46 30 54 18 8 -12 65 23 65 40 0 8 16 29 35 46 29 26 32 33 21 47 -11 13 -10
20 1 44 10 20 12 33 4 44 -7 12 -3 37 13 90 12 40 23 78 24 83 2 6 6 15 10 22
10 15 17 75 17 130 -1 23 4 44 10 48 6 3 8 10 5 14 -2 5 7 18 20 31 19 18 23
29 18 49 -3 14 -13 30 -21 35 -10 6 -11 11 -3 15 9 6 19 57 20 114 1 9 8 17
16 17 20 0 19 9 -2 32 -14 15 -15 23 -6 37 9 14 9 21 0 30 -8 8 -8 14 0 22 9
9 8 17 -3 34 -13 20 -13 25 3 41 12 12 14 19 6 21 -8 3 -4 13 11 30 17 18 23
34 20 52 -3 15 -1 38 4 52 7 17 5 27 -4 34 -10 8 -9 18 7 50 11 22 21 61 23
87 1 25 8 53 15 61 7 9 8 18 3 21 -6 4 -7 21 -2 43 5 21 5 42 0 48 -5 6 -5 29
1 54 5 24 7 52 4 62 -4 10 -3 24 2 31 4 7 8 27 9 43 2 17 5 46 8 65 4 19 8 69
11 110 2 41 9 76 15 78 5 2 10 8 10 14 0 6 -7 7 -16 4 -18 -7 -17 -3 9 67 7
20 16 34 20 31 3 -4 5 7 3 22 -1 16 1 34 6 40 4 6 13 35 18 64 6 30 14 56 19
59 12 9 21 75 24 173 2 79 0 88 -18 93 -19 6 -19 6 3 15 26 11 26 8 6 77 -13
43 -14 61 -5 80 12 26 5 93 -9 93 -5 0 -7 21 -5 46 2 26 0 69 -6 97 -6 34 -6
54 1 61 14 14 13 22 -5 40 -9 8 -19 35 -24 60 -7 38 -5 47 12 64 20 20 20 20
-7 47 -20 20 -24 30 -16 40 7 9 6 16 -5 25 -10 8 -12 17 -6 24 6 7 10 21 10
31 1 11 1 27 2 35 0 8 -7 34 -15 58 -12 30 -15 63 -11 118 3 50 0 98 -11 142
-8 37 -17 107 -20 156 -4 87 -14 133 -14 66z m-83 -2776 c-3 -3 -12 -4 -19 -1
-8 3 -5 6 6 6 11 1 17 -2 13 -5z m-137 -915 c0 -5 -4 -9 -10 -9 -5 0 -10 7
-10 16 0 8 5 12 10 9 6 -3 10 -10 10 -16z m-180 -259 c0 -5 -4 -10 -10 -10 -5
0 -10 5 -10 10 0 6 5 10 10 10 6 0 10 -4 10 -10z m-110 -174 c0 -3 -4 -8 -10
-11 -5 -3 -10 -1 -10 4 0 6 5 11 10 11 6 0 10 -2 10 -4z m-175 -776 c3 -5 0
-10 -7 -10 -7 0 -25 -7 -40 -14 -16 -8 -28 -12 -28 -8 0 8 50 41 62 42 4 0 10
-4 13 -10z m-95 -44 c0 -3 -4 -8 -10 -11 -5 -3 -10 -1 -10 4 0 6 5 11 10 11 6
0 10 -2 10 -4z m-50 -38 c0 -16 -3 -19 -11 -11 -6 6 -8 16 -5 22 11 17 16 13
16 -11z m-115 -38 c3 -5 1 -10 -4 -10 -6 0 -11 5 -11 10 0 6 2 10 4 10 3 0 8
-4 11 -10z m131 -167 c20 -26 17 -30 -15 -25 -22 3 -28 8 -24 23 7 24 22 24
39 2z m-111 -53 c3 -5 -1 -10 -9 -10 -9 0 -16 5 -16 10 0 6 4 10 9 10 6 0 13
-4 16 -10z"/>
<path d="M29992 13060 c0 -19 2 -27 5 -17 2 9 2 25 0 35 -3 9 -5 1 -5 -18z"/>
<path d="M29991 12994 c0 -11 3 -14 6 -6 3 7 2 16 -1 19 -3 4 -6 -2 -5 -13z"/>
<path d="M30170 10094 c-10 -26 -30 -25 -30 2 0 8 -7 14 -15 14 -9 0 -15 -9
-15 -25 0 -30 -11 -32 -27 -6 -13 21 -54 36 -47 16 7 -17 -43 -55 -75 -56 -17
-1 -20 -3 -8 -6 9 -2 17 -8 17 -12 0 -13 -24 -31 -42 -31 -10 0 -18 -4 -18
-10 0 -17 35 -11 59 11 12 11 28 18 36 15 7 -2 18 1 24 8 7 8 38 14 84 15 39
1 74 6 75 11 2 6 18 10 37 10 18 0 38 7 45 15 10 12 10 15 -3 15 -8 0 -18 -6
-20 -12 -4 -10 -6 -10 -6 0 -1 7 -5 10 -11 7 -5 -3 -15 5 -22 19 -14 33 -26
33 -38 0z"/>
<path d="M29880 9945 c0 -8 4 -15 9 -15 5 0 14 7 21 15 10 13 9 15 -9 15 -12
0 -21 -6 -21 -15z"/>
<path d="M29720 9860 c0 -5 7 -10 15 -10 8 0 15 5 15 10 0 6 -7 10 -15 10 -8
0 -15 -4 -15 -10z"/>
<path d="M29659 9704 c-1 -5 -1 -12 0 -16 0 -5 -5 -8 -13 -8 -7 0 -20 -7 -27
-16 -12 -14 -14 -14 -19 2 -6 15 -8 14 -12 -9 -3 -15 -1 -27 3 -27 5 0 9 -13
9 -30 0 -22 -5 -30 -18 -30 -31 0 -62 -82 -46 -123 12 -31 78 55 89 117 4 20
11 36 16 36 9 0 63 80 57 84 -2 1 -11 8 -20 15 -10 7 -19 10 -19 5z"/>
<path d="M29152 8800 c0 -19 2 -27 5 -17 2 9 2 25 0 35 -3 9 -5 1 -5 -18z"/>
<path d="M29164 8684 c3 -9 6 -20 6 -25 0 -5 4 -9 9 -9 5 0 9 11 9 25 0 15 -6
25 -15 25 -10 0 -13 -6 -9 -16z"/>
<path d="M1521 8444 c0 -11 3 -14 6 -6 3 7 2 16 -1 19 -3 4 -6 -2 -5 -13z"/>
<path d="M1314 7925 c-3 -7 -4 -22 -2 -31 3 -15 6 -14 20 8 15 23 15 27 2 32
-8 3 -17 -1 -20 -9z"/>
<path d="M1310 7850 c0 -5 5 -10 10 -10 6 0 10 5 10 10 0 6 -4 10 -10 10 -5 0
-10 -4 -10 -10z"/>
<path d="M17800 7680 c0 -5 5 -10 11 -10 5 0 7 5 4 10 -3 6 -8 10 -11 10 -2 0
-4 -4 -4 -10z"/>
<path d="M29211 7614 c0 -11 3 -14 6 -6 3 7 2 16 -1 19 -3 4 -6 -2 -5 -13z"/>
<path d="M29352 6850 c0 -14 2 -19 5 -12 2 6 2 18 0 25 -3 6 -5 1 -5 -13z"/>
<path d="M30126 5293 c-14 -4 -16 -7 -6 -13 17 -10 2 -33 -17 -26 -19 8 -47
-20 -37 -36 6 -10 4 -11 -7 0 -7 6 -17 12 -21 12 -4 0 -7 -6 -5 -12 1 -9 -10
-13 -36 -12 -29 2 -37 -1 -33 -12 4 -11 -3 -14 -29 -12 -19 1 -35 6 -35 11 0
5 -7 4 -15 -3 -9 -7 -15 -29 -15 -54 0 -64 -9 -86 -35 -86 -14 0 -25 -7 -28
-20 -6 -23 -45 -28 -65 -8 -16 16 -15 3 0 -22 15 -23 3 -38 -19 -24 -28 17
-63 -5 -63 -41 0 -44 -11 -75 -25 -75 -7 0 -15 9 -18 20 -3 13 -13 20 -29 20
-17 0 -20 -2 -9 -9 23 -15 21 -39 -3 -45 -17 -5 -18 -8 -6 -15 8 -5 18 -7 22
-5 4 3 8 1 8 -5 0 -6 7 -8 15 -5 9 4 15 0 15 -9 0 -8 5 -17 12 -19 6 -2 8 -10
4 -17 -5 -7 -15 -10 -23 -7 -9 4 -17 -1 -20 -14 -6 -22 -23 -26 -41 -8 -8 8
-15 8 -27 -2 -11 -9 -15 -9 -15 -1 0 7 14 17 30 22 17 6 30 15 30 20 0 6 -8 6
-19 0 -14 -8 -22 -7 -32 5 -12 14 -14 14 -26 -2 -12 -17 -13 -16 -13 5 0 22
-3 23 -40 17 -25 -4 -40 -2 -40 4 0 5 14 10 30 10 17 0 30 5 30 10 0 6 7 10
15 10 8 0 15 4 15 9 0 5 6 9 13 8 55 -2 62 14 14 31 -45 16 -68 15 -61 -2 5
-13 -22 -29 -42 -25 -22 4 -33 -2 -28 -16 4 -9 0 -15 -10 -15 -9 0 -16 -5 -16
-11 0 -6 7 -9 15 -5 8 3 15 1 15 -5 0 -5 -7 -12 -17 -16 -14 -6 -14 -7 4 -14
16 -6 19 -14 16 -33 -3 -14 -10 -26 -15 -26 -5 0 2 -14 16 -31 33 -39 33 -48
-3 -60 -21 -7 -27 -15 -24 -28 5 -20 67 -43 80 -30 7 7 9 -34 3 -51 -1 -3 -2
-9 -1 -13 1 -4 -10 -18 -24 -31 -24 -22 -35 -43 -16 -32 5 3 14 -1 21 -9 10
-12 10 -15 -1 -16 -8 0 -5 -4 6 -9 29 -12 35 -12 35 4 0 23 20 30 37 13 19
-18 9 -38 -15 -31 -12 4 -13 3 -4 -3 7 -6 10 -17 6 -28 -6 -15 -4 -17 17 -11
45 13 56 14 66 8 16 -11 25 -50 13 -57 -7 -4 -7 -13 1 -27 10 -19 9 -20 -15
-16 -21 4 -26 2 -22 -9 3 -8 6 -17 6 -19 0 -2 8 -4 17 -4 20 0 4 -20 -18 -23
-22 -4 -39 -17 -39 -30 0 -7 4 -6 10 3 9 13 12 12 26 -5 13 -17 16 -18 24 -5
8 12 10 11 10 -6 0 -14 -8 -24 -22 -29 -20 -6 -21 -8 -5 -12 25 -7 17 -37 -11
-41 -15 -2 -22 2 -22 12 0 9 -4 16 -10 16 -14 0 -12 -38 3 -43 6 -2 9 -8 5
-12 -4 -4 -14 -2 -22 4 -8 7 -19 10 -25 7 -5 -3 -11 0 -14 6 -3 8 -9 1 -16
-15 -6 -15 -17 -30 -26 -33 -16 -7 -7 -19 29 -39 11 -6 20 -23 22 -39 2 -24 1
-26 -13 -14 -14 11 -15 11 -10 -2 4 -8 10 -23 13 -32 5 -14 14 -17 43 -12 31
5 37 2 47 -20 9 -19 9 -26 0 -30 -8 -3 -7 -7 2 -14 11 -8 11 -10 -1 -15 -9 -3
-21 1 -29 10 -10 13 -10 17 -1 20 9 3 10 10 3 24 -10 18 -12 18 -35 3 -27 -17
-23 -44 6 -44 12 0 19 -7 19 -19 0 -14 7 -19 25 -17 14 0 25 6 26 11 1 16 20
-37 24 -67 3 -21 0 -25 -12 -21 -12 5 -14 3 -8 -7 4 -7 8 -28 7 -47 -1 -19 2
-31 7 -29 5 3 19 -4 32 -15 20 -17 21 -22 9 -29 -8 -6 -21 -10 -27 -10 -20 0
-15 -34 7 -53 11 -9 20 -25 20 -34 0 -14 2 -15 9 -4 15 23 49 -3 44 -34 -3
-15 -10 -22 -17 -18 -6 3 -6 0 2 -8 6 -7 12 -23 12 -35 0 -13 5 -26 12 -30 8
-5 6 -11 -7 -20 -16 -12 -16 -14 -1 -29 19 -20 20 -27 4 -44 -11 -10 -9 -15 6
-26 10 -8 15 -18 11 -24 -3 -6 1 -11 9 -11 9 0 13 -6 10 -14 -3 -8 -1 -17 5
-21 7 -3 8 0 5 9 -3 9 -1 16 5 16 13 0 13 1 13 -117 -1 -75 2 -95 15 -102 22
-12 23 -71 2 -71 -9 0 -19 -6 -22 -14 -4 -10 0 -14 13 -11 25 5 59 -43 39 -56
-11 -7 -9 -10 9 -15 12 -4 22 -10 22 -15 0 -5 -7 -6 -15 -3 -18 7 -19 3 -4
-29 6 -14 22 -30 36 -36 13 -6 21 -16 18 -21 -10 -17 -32 -11 -38 10 -3 13
-11 18 -20 14 -12 -4 -14 0 -10 14 2 11 0 23 -6 26 -7 5 -11 -4 -11 -23 0 -17
-4 -31 -10 -31 -5 0 -10 -5 -10 -12 0 -6 3 -8 7 -5 11 11 32 -27 33 -59 0 -16
-5 -35 -12 -42 -7 -7 -8 -12 -2 -12 6 0 16 10 22 23 10 20 11 19 5 -8 -3 -16
-9 -31 -13 -33 -11 -4 0 -42 12 -42 5 0 4 -9 -2 -20 -6 -11 -17 -20 -25 -20
-8 0 -15 -4 -15 -9 0 -15 22 -25 29 -13 3 6 19 14 34 17 15 4 32 15 38 24 9
14 10 14 5 -1 -3 -11 0 -18 7 -18 7 0 3 -7 -8 -16 -16 -12 -17 -16 -6 -23 7
-5 11 -14 7 -20 -5 -7 -1 -9 11 -4 10 3 15 3 11 -2 -4 -4 -3 -14 3 -22 6 -7 9
-22 6 -32 -3 -11 0 -23 7 -26 6 -3 1 -3 -10 -1 -20 3 -21 1 -13 -26 4 -17 16
-36 26 -44 15 -10 16 -16 7 -32 -8 -12 -9 -24 -2 -35 6 -11 5 -17 -2 -17 -6 0
-8 -4 -5 -10 3 -6 1 -10 -4 -10 -6 0 -11 -7 -11 -15 0 -8 4 -15 9 -15 12 0 51
-62 45 -72 -3 -5 -10 -6 -15 -3 -5 4 -9 1 -9 -4 0 -6 -5 -11 -12 -11 -9 0 -9
3 0 12 18 18 15 28 -9 28 -11 0 -17 -4 -14 -10 3 -5 1 -10 -6 -10 -8 0 -10 11
-6 35 5 32 4 35 -18 35 -17 0 -23 -4 -19 -14 3 -8 -3 -16 -16 -19 -14 -4 -19
-10 -14 -18 4 -8 3 -10 -4 -5 -17 10 -15 -13 2 -30 27 -26 42 -15 36 26 -1 8
1 12 5 8 12 -11 16 -88 5 -88 -6 0 -10 -4 -10 -10 0 -5 7 -10 15 -10 8 0 15
-5 15 -11 0 -13 25 -39 38 -39 15 0 22 40 11 67 -9 24 -5 43 10 43 4 0 5 -14
3 -32 -4 -25 -2 -30 11 -25 9 3 18 -1 22 -11 6 -13 10 -9 19 18 11 30 18 36
47 38 54 5 68 25 66 92 -1 35 4 64 12 73 12 15 25 82 38 190 4 34 0 65 -16
112 -24 71 -21 85 27 137 30 32 46 107 44 197 -2 60 0 66 33 102 25 28 35 48
35 73 0 18 12 78 26 132 23 89 34 159 51 319 5 52 -24 185 -73 333 -13 40 -24
79 -24 87 0 9 17 48 38 88 61 117 202 252 286 273 16 4 48 26 72 49 l44 42 0
72 c0 83 -5 95 -71 172 -35 41 -59 59 -91 68 -24 7 -56 19 -73 26 -16 7 -51
22 -77 34 -26 11 -70 43 -98 70 l-51 51 4 158 c2 98 9 173 18 201 l14 43 -49
44 c-46 42 -65 48 -110 37z m-398 -351 c2 -12 -1 -22 -6 -22 -15 0 -34 28 -27
40 10 17 30 6 33 -18z m-63 -222 c3 -5 1 -10 -4 -10 -6 0 -11 5 -11 10 0 6 2
10 4 10 3 0 8 -4 11 -10z m-241 -21 c-3 -5 -10 -7 -15 -3 -5 3 -7 10 -3 15 3
5 10 7 15 3 5 -3 7 -10 3 -15z m166 -77 c0 -4 -9 -13 -20 -19 -20 -13 -37 -2
-25 17 7 12 45 14 45 2z m50 -437 c-7 -9 -15 -13 -17 -11 -7 7 7 26 19 26 6 0
6 -6 -2 -15z m-130 -145 c0 -5 -4 -10 -10 -10 -5 0 -10 5 -10 10 0 6 5 10 10
10 6 0 10 -4 10 -10z m80 -104 c0 -2 3 -11 6 -19 4 -11 -1 -13 -20 -10 -16 3
-23 10 -19 19 4 12 33 21 33 10z m44 -61 c19 -15 19 -15 -2 -15 -12 0 -22 5
-22 11 0 6 -9 8 -21 4 -15 -5 -19 -4 -15 4 10 15 37 13 60 -4z m56 -15 c0 -5
-2 -10 -4 -10 -3 0 -8 5 -11 10 -3 6 -1 10 4 10 6 0 11 -4 11 -10z m-50 -30
c0 -5 -5 -10 -11 -10 -5 0 -7 5 -4 10 3 6 8 10 11 10 2 0 4 -4 4 -10z m270
-1789 c0 -6 -4 -13 -10 -16 -5 -3 -10 1 -10 9 0 9 5 16 10 16 6 0 10 -4 10 -9z
m20 -81 c0 -5 -2 -10 -4 -10 -3 0 -8 5 -11 10 -3 6 -1 10 4 10 6 0 11 -4 11
-10z"/>
<path d="M29938 5234 c3 -19 1 -25 -6 -20 -8 5 -10 2 -6 -8 10 -27 24 -18 24
15 0 20 4 28 12 23 7 -4 8 -3 4 4 -14 23 -33 13 -28 -14z"/>
<path d="M29577 5079 c4 -13 8 -18 11 -10 2 7 -1 18 -6 23 -8 8 -9 4 -5 -13z"/>
<path d="M29600 4971 c0 -6 5 -13 10 -16 6 -3 10 1 10 9 0 9 -4 16 -10 16 -5
0 -10 -4 -10 -9z"/>
<path d="M29385 4880 c-3 -5 -2 -10 4 -10 5 0 13 5 16 10 3 6 2 10 -4 10 -5 0
-13 -4 -16 -10z"/>
<path d="M29394 4498 c-3 -5 -1 -15 5 -21 8 -8 11 -8 11 1 0 7 8 12 17 12 9 0
13 3 9 7 -11 11 -35 12 -42 1z"/>
<path d="M29475 4360 c-3 -5 -1 -10 4 -10 6 0 11 5 11 10 0 6 -2 10 -4 10 -3
0 -8 -4 -11 -10z"/>
<path d="M29530 4325 c0 -8 5 -15 10 -15 6 0 10 -7 10 -15 0 -8 6 -15 14 -15
8 0 13 8 12 18 -2 33 -46 59 -46 27z"/>
<path d="M29560 3760 c0 -5 4 -10 9 -10 6 0 13 5 16 10 3 6 -1 10 -9 10 -9 0
-16 -4 -16 -10z"/>
<path d="M29605 3500 c-3 -5 -1 -10 4 -10 6 0 11 5 11 10 0 6 -2 10 -4 10 -3
0 -8 -4 -11 -10z"/>
<path d="M29720 3129 c7 -11 14 -19 16 -16 7 7 -7 37 -17 37 -6 0 -5 -9 1 -21z"/>
<path d="M29600 2366 c0 -36 17 -41 18 -6 0 17 -4 30 -9 30 -5 0 -9 -11 -9
-24z"/>
<path d="M29860 2363 c0 -10 4 -14 8 -8 4 6 11 13 16 18 5 4 2 7 -7 7 -10 0
-17 -8 -17 -17z"/>
<path d="M29667 2324 c6 -15 23 -19 23 -5 0 5 -7 11 -14 14 -10 4 -13 1 -9 -9z"/>
<path d="M25188 2233 c7 -3 16 -2 19 1 4 3 -2 6 -13 5 -11 0 -14 -3 -6 -6z"/>
<path d="M29872 2208 c2 -6 10 -14 16 -16 7 -2 10 2 6 12 -7 18 -28 22 -22 4z"/>
<path d="M29747 2199 c7 -7 15 -10 18 -7 3 3 -2 9 -12 12 -14 6 -15 5 -6 -5z"/>
<path d="M29890 2169 c0 -5 5 -7 10 -4 6 3 10 8 10 11 0 2 -4 4 -10 4 -5 0
-10 -5 -10 -11z"/>
<path d="M25888 2133 c7 -3 16 -2 19 1 4 3 -2 6 -13 5 -11 0 -14 -3 -6 -6z"/>
<path d="M29720 2111 c0 -6 4 -13 10 -16 6 -3 7 1 4 9 -7 18 -14 21 -14 7z"/>
<path d="M29801 2104 c0 -11 3 -14 6 -6 3 7 2 16 -1 19 -3 4 -6 -2 -5 -13z"/>
<path d="M29005 2050 c3 -5 8 -10 11 -10 2 0 4 5 4 10 0 6 -5 10 -11 10 -5 0
-7 -4 -4 -10z"/>
<path d="M29845 2010 c-3 -5 -1 -10 4 -10 6 0 11 5 11 10 0 6 -2 10 -4 10 -3
0 -8 -4 -11 -10z"/>
<path d="M29670 2000 c0 -5 5 -10 11 -10 5 0 7 5 4 10 -3 6 -8 10 -11 10 -2 0
-4 -4 -4 -10z"/>
<path d="M29710 1996 c0 -8 -6 -16 -12 -19 -7 -2 -9 -8 -5 -13 4 -5 12 -2 16
5 5 7 13 11 19 7 6 -4 8 2 5 14 -6 23 -23 27 -23 6z"/>
<path d="M29549 1973 c-12 -15 -12 -16 4 -10 10 4 23 7 28 7 5 0 9 5 9 10 0
16 -26 12 -41 -7z"/>
<path d="M29760 1980 c0 -5 5 -10 11 -10 5 0 7 5 4 10 -3 6 -8 10 -11 10 -2 0
-4 -4 -4 -10z"/>
<path d="M26854 1969 c-3 -6 -12 -8 -20 -5 -8 3 -14 2 -14 -3 0 -19 104 -29
115 -11 3 5 -7 12 -22 16 -15 3 -33 7 -40 9 -7 2 -15 0 -19 -6z"/>
<path d="M29611 1934 c0 -11 3 -14 6 -6 3 7 2 16 -1 19 -3 4 -6 -2 -5 -13z"/>
<path d="M27093 1923 c-21 -7 -15 -17 17 -31 36 -16 75 -12 75 8 0 9 -11 15
-30 15 -16 0 -34 3 -40 6 -5 4 -16 4 -22 2z"/>
<path d="M29840 1890 c0 -27 2 -29 30 -23 23 4 30 2 30 -11 0 -24 27 -19 34 7
11 43 8 52 -14 32 -20 -18 -21 -18 -36 3 -22 32 -44 28 -44 -8z"/>
<path d="M29975 1912 c-6 -4 -11 -20 -12 -35 -1 -22 5 -31 26 -39 24 -10 25
-11 6 -18 -13 -6 -15 -9 -5 -9 13 -1 13 -3 1 -10 -9 -6 -23 -4 -40 7 -24 16
-25 16 -17 -3 13 -34 12 -40 -6 -39 -11 1 -18 -5 -18 -17 0 -10 -7 -19 -15
-19 -8 0 -15 4 -15 9 0 5 -7 11 -15 15 -12 4 -13 2 -2 -17 6 -12 16 -25 20
-28 4 -3 1 -12 -8 -19 -13 -11 -18 -11 -24 -1 -4 6 -18 13 -29 14 -15 1 -22 8
-23 22 -1 17 -2 16 -8 -5 -6 -20 -13 -25 -38 -23 -17 2 -36 -3 -41 -10 -7 -8
-25 -11 -49 -8 l-38 4 30 13 c17 7 23 13 14 14 -9 0 -20 7 -23 17 -6 14 -9 13
-28 -6 -14 -16 -17 -25 -9 -30 7 -4 -3 -13 -23 -21 -19 -7 -37 -21 -39 -31 -3
-12 0 -16 9 -12 8 3 14 -1 14 -10 0 -8 -11 -18 -25 -21 -31 -8 -32 -24 -2 -36
12 -5 16 -9 10 -9 -20 -1 -15 -21 4 -21 14 0 13 -3 -5 -16 -21 -15 -32 -42
-12 -29 6 3 10 2 10 -3 0 -5 -16 -13 -35 -19 -19 -6 -33 -7 -29 -2 3 5 -5 9
-18 10 -13 0 -18 3 -12 5 7 3 9 15 6 27 -6 22 -6 21 -12 -3 -4 -16 -14 -26
-29 -28 -18 -3 -22 0 -18 12 4 9 1 16 -4 16 -7 0 -9 11 -7 24 5 23 2 24 -36
23 -37 -2 -41 1 -44 23 -6 60 -11 67 -36 63 -21 -4 -23 -2 -19 21 5 26 -10 36
-22 16 -4 -6 -16 -8 -27 -4 -18 5 -20 3 -16 -21 3 -15 1 -42 -5 -61 -10 -33
-24 -40 -64 -35 -13 2 -17 -11 -7 -21 3 -4 18 -2 34 2 33 10 46 -8 26 -35 -13
-18 -36 -21 -103 -12 -33 4 -43 2 -43 -9 0 -19 -39 -18 -46 1 -8 19 -84 6 -84
-15 0 -20 54 -42 88 -36 38 6 62 -4 101 -40 26 -24 81 -33 81 -14 0 6 26 10
58 10 31 0 80 3 109 6 47 6 52 9 59 38 l8 31 3 -30 c7 -52 45 -65 163 -58 56
3 103 10 106 15 3 4 16 8 29 8 13 0 26 6 28 13 4 8 8 8 14 2 4 -5 15 -11 23
-13 8 -2 17 -8 18 -13 2 -5 30 -9 61 -9 57 0 58 1 53 25 -4 25 11 35 23 15 6
-10 19 0 122 102 46 45 51 54 46 82 -3 17 -10 35 -14 41 -5 5 -9 15 -9 23 0 8
-11 23 -25 34 -22 17 -25 27 -25 84 0 35 -3 64 -7 64 -5 0 -9 14 -10 32 -3 35
-13 51 -28 40z m19 -147 c-4 -8 -8 -15 -10 -15 -2 0 -4 7 -4 15 0 8 4 15 10
15 5 0 7 -7 4 -15z m-3 -80 c7 -13 3 -12 -10 5 -11 14 -21 30 -21 35 0 11 14
-7 31 -40z m-230 -45 c6 0 5 -8 -1 -20 -8 -15 -17 -19 -35 -14 -18 4 -27 1
-31 -10 -10 -25 -22 -19 -20 12 0 15 9 36 19 47 l18 20 15 -20 c11 -14 15 -15
14 -5 -4 28 3 45 7 18 2 -16 9 -28 14 -28z m138 31 c11 -7 9 -11 -9 -21 -15
-8 -20 -8 -16 -1 10 15 -7 14 -22 -1 -9 -9 -12 -9 -12 0 0 6 8 16 18 21 21 13
24 13 41 2z m-239 -66 c0 -28 -5 -38 -22 -44 -21 -8 -19 -10 20 -20 27 -8 40
-16 36 -23 -5 -8 -2 -9 9 -5 10 3 17 2 17 -3 0 -6 -4 -10 -10 -10 -5 0 -10 -7
-10 -15 0 -8 -4 -15 -10 -15 -5 0 -10 7 -10 15 0 8 -7 15 -16 15 -10 0 -14 -6
-11 -14 4 -10 -2 -16 -16 -18 -15 -2 -22 -10 -23 -26 -2 -27 -15 -42 -21 -25
-3 9 -10 10 -24 3 -23 -13 -26 2 -4 24 8 8 15 20 15 26 0 8 8 10 21 7 15 -4
23 0 26 14 3 10 9 19 14 19 5 0 9 5 9 10 0 6 -16 10 -35 10 -19 0 -35 5 -35
11 0 14 26 39 40 39 6 0 8 5 5 10 -3 6 1 10 9 10 9 0 16 9 16 20 0 11 2 20 5
20 3 0 5 -16 5 -35z m254 10 c-4 -8 -8 -15 -10 -15 -2 0 -4 7 -4 15 0 8 4 15
10 15 5 0 7 -7 4 -15z m106 -25 c-20 -13 -50 -13 -50 0 0 6 15 10 33 10 24 0
28 -3 17 -10z m-808 -29 c-22 -22 -27 -19 -12 8 6 12 15 19 20 16 5 -3 2 -14
-8 -24z m578 11 c0 -8 -10 -22 -22 -32 -18 -14 -24 -15 -35 -4 -16 15 -17 28
-2 19 6 -4 13 1 15 12 6 21 44 26 44 5z m-95 -12 c3 -5 1 -10 -4 -10 -6 0 -11
5 -11 10 0 6 2 10 4 10 3 0 8 -4 11 -10z m265 0 c0 -5 -4 -10 -10 -10 -5 0
-10 5 -10 10 0 6 5 10 10 10 6 0 10 -4 10 -10z m-54 -25 c4 -8 12 -15 19 -15
7 0 12 -8 10 -17 -2 -10 -4 -24 -4 -30 -1 -21 -21 -15 -21 6 0 10 -7 24 -15
31 -17 14 -20 40 -5 40 6 0 13 -7 16 -15z m-596 -7 c0 -4 -9 -8 -20 -8 -11 0
-20 4 -20 8 0 4 9 8 20 8 11 0 20 -4 20 -8z m70 -8 c0 -5 -2 -10 -4 -10 -3 0
-8 5 -11 10 -3 6 -1 10 4 10 6 0 11 -4 11 -10z m620 -5 c0 -8 -4 -15 -10 -15
-5 0 -10 -7 -10 -15 0 -16 -16 -21 -23 -7 -3 4 -1 17 4 30 9 25 39 30 39 7z
m-420 -19 c0 -3 -4 -8 -10 -11 -5 -3 -10 -1 -10 4 0 6 5 11 10 11 6 0 10 -2
10 -4z m-293 -32 c-3 -3 -12 -4 -19 -1 -8 3 -5 6 6 6 11 1 17 -2 13 -5z m53
-4 c0 -5 -4 -10 -10 -10 -5 0 -10 5 -10 10 0 6 5 10 10 10 6 0 10 -4 10 -10z
m540 0 c0 -5 -9 -10 -20 -10 -11 0 -20 -7 -20 -16 0 -9 -5 -12 -12 -8 -8 5 -4
13 11 26 26 20 41 23 41 8z m-500 -14 c0 -24 -17 -28 -23 -6 -3 13 0 20 9 20
8 0 14 -6 14 -14z"/>
<path d="M29750 1549 c0 -5 5 -7 10 -4 6 3 10 8 10 11 0 2 -4 4 -10 4 -5 0
-10 -5 -10 -11z"/>
<path d="M29750 1899 c0 -5 5 -7 10 -4 6 3 10 8 10 11 0 2 -4 4 -10 4 -5 0
-10 -5 -10 -11z"/>
<path d="M29587 1894 c-13 -13 -7 -23 13 -21 11 1 19 6 17 11 -4 13 -21 18
-30 10z"/>
<path d="M27192 1879 c2 -6 7 -10 11 -10 4 1 19 1 35 1 21 0 24 2 12 10 -20
13 -63 13 -58 -1z"/>
<path d="M29264 1857 c1 -12 10 -23 19 -25 11 -2 14 2 10 17 -7 29 -34 36 -29
8z"/>
<path d="M29693 1872 c-14 -2 -23 -10 -23 -20 0 -14 2 -15 10 -2 5 8 12 11 16
7 4 -3 1 -13 -5 -21 -10 -12 -8 -17 8 -25 28 -16 33 -14 26 9 -7 21 10 28 18
8 3 -10 10 -8 23 5 15 14 16 18 4 17 -27 -4 -41 0 -36 9 7 11 -13 18 -41 13z"/>
<path d="M29796 1846 c3 -9 -3 -20 -15 -28 -12 -7 -21 -16 -21 -21 0 -4 5 -5
10 -2 9 6 14 -8 11 -28 -1 -5 3 -6 9 -2 5 3 10 13 10 21 0 12 13 16 45 14 7
-1 35 27 35 34 0 3 -10 2 -23 -3 -18 -7 -26 -5 -35 10 -14 22 -34 26 -26 5z"/>
<path d="M27340 1831 c0 -5 7 -12 16 -15 14 -5 15 -4 4 9 -14 17 -20 19 -20 6z"/>
<path d="M27395 1820 c-3 -5 1 -10 9 -10 9 0 16 5 16 10 0 6 -4 10 -9 10 -6 0
-13 -4 -16 -10z"/>
<path d="M27605 1815 c-5 -2 -23 -6 -39 -10 -23 -5 -27 -8 -15 -16 23 -14 48
-10 71 11 20 19 13 25 -17 15z"/>
<path d="M29580 1810 c0 -5 5 -10 11 -10 5 0 7 5 4 10 -3 6 -8 10 -11 10 -2 0
-4 -4 -4 -10z"/>
<path d="M29640 1810 c-14 -3 -26 -14 -27 -25 -2 -15 -1 -16 5 -5 10 22 32 23
48 3 13 -17 13 -17 14 4 0 27 -8 32 -40 23z"/>
<path d="M29236 1795 c-3 -8 -1 -15 4 -15 6 0 10 7 10 15 0 8 -2 15 -4 15 -2
0 -6 -7 -10 -15z"/>
<path d="M27640 1772 c1 -15 39 -52 54 -52 8 0 18 -4 21 -10 3 -5 17 -10 31
-10 14 0 33 -4 43 -10 10 -5 50 -6 90 -3 68 6 70 7 49 22 -21 14 -58 22 -103
22 -10 0 -25 5 -32 10 -6 6 -17 8 -23 4 -5 -3 -13 1 -16 9 -3 9 -10 16 -16 16
-5 0 -7 -4 -3 -9 10 -17 -16 -23 -33 -8 -19 16 -62 29 -62 19z"/>
<path d="M29687 1759 c-9 -5 -23 -7 -30 -3 -6 4 -5 0 3 -9 18 -19 60 -12 60 9
0 16 -8 17 -33 3z"/>
<path d="M29004 1744 c-18 -14 -18 -15 4 -4 12 6 22 13 22 15 0 8 -5 6 -26
-11z"/>
<path d="M29562 1748 c-20 -20 -14 -28 13 -16 13 6 22 15 19 19 -7 12 -18 11
-32 -3z"/>
<path d="M29156 1726 c3 -8 12 -12 21 -9 12 5 12 7 1 14 -20 13 -28 11 -22 -5z"/>
<path d="M27973 1714 c-20 -20 -16 -24 22 -24 19 0 35 5 35 10 0 6 7 10 16 10
8 0 12 5 9 10 -5 8 -11 8 -20 0 -13 -11 -36 -10 -45 1 -3 4 -11 1 -17 -7z"/>
<path d="M29110 1715 c0 -8 4 -15 10 -15 5 0 7 7 4 15 -4 8 -8 15 -10 15 -2 0
-4 -7 -4 -15z"/>
<path d="M28825 1699 c-16 -6 -14 -8 13 -8 33 -1 41 4 20 12 -7 2 -22 1 -33
-4z"/>
<path d="M29208 1693 c7 -3 16 -2 19 1 4 3 -2 6 -13 5 -11 0 -14 -3 -6 -6z"/>
<path d="M28260 1680 c-8 -5 -23 -11 -33 -14 -10 -3 -15 -11 -12 -17 4 -6 13
-8 20 -5 8 3 21 -6 29 -20 12 -18 25 -24 51 -24 18 0 37 -4 40 -10 7 -11 58
-14 68 -3 4 3 1 13 -6 21 -10 13 -8 14 11 8 16 -6 22 -3 22 8 0 21 -8 20 -50
-5 -29 -18 -32 -18 -20 -4 14 17 13 18 -18 12 -18 -4 -31 -3 -29 1 3 4 -4 16
-14 26 -11 11 -19 14 -19 8 0 -7 -5 -12 -11 -12 -6 0 -9 9 -6 20 6 22 1 24
-23 10z"/>
<path d="M28068 1673 c6 -2 18 -2 25 0 6 3 1 5 -13 5 -14 0 -19 -2 -12 -5z"/>
<path d="M29148 1673 c7 -3 16 -2 19 1 4 3 -2 6 -13 5 -11 0 -14 -3 -6 -6z"/>
<path d="M29450 1673 c0 -7 -11 -13 -25 -13 -14 0 -25 -5 -25 -11 0 -5 -6 -7
-12 -3 -9 5 -8 2 1 -10 10 -12 17 -14 25 -6 5 5 18 10 27 10 23 0 30 12 18 30
-6 10 -9 11 -9 3z"/>
<path d="M28608 1637 c-7 -8 -20 -12 -30 -9 -9 2 -27 -3 -40 -12 -29 -21 -45
-20 -51 2 -4 16 -5 16 -6 0 -2 -32 34 -54 83 -50 48 4 62 18 24 24 -33 5 -33
24 1 22 21 -1 31 3 34 17 6 22 2 24 -15 6z"/>
<path d="M28682 1628 c2 -6 10 -14 16 -16 7 -2 10 2 6 12 -7 18 -28 22 -22 4z"/>
<path d="M28782 1589 l10 -30 13 23 c14 28 10 38 -15 38 -17 0 -18 -3 -8 -31z"/>
<path d="M28635 1580 c11 -10 37 -26 58 -35 37 -15 38 -15 35 2 -2 10 -8 17
-13 16 -6 -1 -16 4 -24 10 -8 7 -22 11 -33 9 -10 -2 -18 2 -18 7 0 6 -5 11
-12 11 -7 0 -4 -8 7 -20z"/>
<path d="M29110 1580 c0 -18 4 -20 23 -14 12 3 24 8 26 10 6 6 -1 11 -26 18
-19 6 -23 4 -23 -14z"/>
<path d="M29470 1590 c0 -5 5 -10 11 -10 5 0 7 5 4 10 -3 6 -8 10 -11 10 -2 0
-4 -4 -4 -10z"/>
<path d="M28740 1570 c0 -5 5 -10 10 -10 6 0 10 5 10 10 0 6 -4 10 -10 10 -5
0 -10 -4 -10 -10z"/>
<path d="M28930 1550 c-12 -8 -11 -10 7 -10 12 0 25 5 28 10 8 13 -15 13 -35
0z"/>
<path d="M29477 1553 c-13 -12 -7 -21 19 -26 19 -3 24 -1 20 10 -3 8 -6 17 -6
19 0 7 -26 5 -33 -3z"/>
<path d="M28758 1536 c-16 -12 -16 -14 6 -26 13 -7 29 -10 34 -6 5 3 12 -1 16
-9 6 -18 32 -20 42 -3 4 6 3 8 -3 5 -6 -4 -21 2 -33 13 -12 11 -27 17 -33 13
-5 -3 -7 -1 -3 5 10 16 -7 22 -26 8z"/>
<path d="M28820 1540 c0 -5 5 -10 10 -10 6 0 10 5 10 10 0 6 -4 10 -10 10 -5
0 -10 -4 -10 -10z"/>
<path d="M28970 1514 c0 -8 5 -12 10 -9 6 3 10 10 10 16 0 5 -4 9 -10 9 -5 0
-10 -7 -10 -16z"/>
<path d="M28892 1496 c-16 -36 -15 -41 4 -22 8 9 14 24 12 33 -2 13 -6 10 -16
-11z"/>
<path d="M29145 1510 c-3 -5 -1 -10 4 -10 6 0 11 5 11 10 0 6 -2 10 -4 10 -3
0 -8 -4 -11 -10z"/>
<path d="M22010 1081 c0 -6 -47 -8 -110 -6 -61 1 -113 -1 -116 -6 -3 -5 -15
-9 -27 -10 -21 0 -21 -1 -2 -9 25 -11 285 -11 345 -1 43 8 38 12 -23 16 -15 1
-33 7 -40 14 -13 13 -27 14 -27 2z"/>
<path d="M21648 1053 c6 -2 18 -2 25 0 6 3 1 5 -13 5 -14 0 -19 -2 -12 -5z"/>
<path d="M21698 1053 c6 -2 18 -2 25 0 6 3 1 5 -13 5 -14 0 -19 -2 -12 -5z"/>
</g>
</svg>
